<?xml version="1.0" encoding="UTF-8"?>
<svg version="1.1" xmlns="http://www.w3.org/2000/svg" width="128" height="128">
<path d="M0 0 C42.24 0 84.48 0 128 0 C128 42.24 128 84.48 128 128 C85.76 128 43.52 128 0 128 C0 85.76 0 43.52 0 0 Z " fill="#FEFEFE" transform="translate(0,0)"/>
<path d="M0 0 C1.98 0 3.96 0 6 0 C6.33 2.31 6.66 4.62 7 7 C7.928125 6.154375 8.85625 5.30875 9.8125 4.4375 C11.39453125 2.99609375 11.39453125 2.99609375 13 2 C13.99 2.33 14.98 2.66 16 3 C16.33 3.99 16.66 4.98 17 6 C15.87811441 7.14888283 14.75238316 8.29401137 13.625 9.4375 C12.68527344 10.39462891 12.68527344 10.39462891 11.7265625 11.37109375 C10 13 10 13 8 14 C9.44781793 17.44428265 11.27694609 19.36130962 14.125 21.75 C14.84945312 22.36359375 15.57390625 22.9771875 16.3203125 23.609375 C16.87460938 24.06828125 17.42890625 24.5271875 18 25 C17.01 26.32 16.02 27.64 15 29 C11.63408134 27.55746343 9.48952921 25.66735273 7 23 C6.67 23.33 6.34 23.66 6 24 C4.00041636 24.04080783 1.99954746 24.04254356 0 24 C-0.33 22.02 -0.66 20.04 -1 18 C-1.53625 18.825 -2.0725 19.65 -2.625 20.5 C-5 23 -5 23 -8.0625 23.5 C-11 23 -11 23 -12.8125 21.6875 C-15.41655321 17.98700333 -15.45265366 14.37565208 -15 10 C-12.68939041 6.8971814 -11.22646216 5.29913711 -7.4375 4.375 C-4.01403089 5.25281259 -2.92998133 7.14076841 -1 10 C-0.67 6.7 -0.34 3.4 0 0 Z " fill="#498356" transform="translate(59,48)"/>
<path d="M0 0 C1.98 0 3.96 0 6 0 C6 1.65 6 3.3 6 5 C7.98 3.35 9.96 1.7 12 0 C16.93777456 2.22855312 20.41801564 5.19167652 23 10 C23.58339111 14.72800448 23.41917655 19.26263957 23 24 C21.35 24 19.7 24 18 24 C17.98582031 23.26394531 17.97164062 22.52789062 17.95703125 21.76953125 C17.8238831 15.16808313 17.8238831 15.16808313 14.4375 9.8125 C13.633125 9.214375 12.82875 8.61625 12 8 C9.3162973 9.20185173 9.3162973 9.20185173 7 12 C6.24619613 15.99197545 6.07016333 19.94328377 6 24 C4.02 24 2.04 24 0 24 C0 16.08 0 8.16 0 0 Z " fill="#438051" transform="translate(5,48)"/>
<path d="M0 0 C1.32 3.3 2.64 6.6 4 10 C6.22382199 7.03490401 8.14265723 4.18401617 10 1 C12.475 1.495 12.475 1.495 15 2 C12.9768215 8.33886232 10.2658774 14.26973685 7.5 20.3125 C7.00113281 21.42173828 6.50226563 22.53097656 5.98828125 23.67382812 C5.50746094 24.72634766 5.02664062 25.77886719 4.53125 26.86328125 C4.09361328 27.82532471 3.65597656 28.78736816 3.20507812 29.77856445 C2 32 2 32 0 33 C-2.125 32.0625 -2.125 32.0625 -4 31 C-3.69964844 30.35933594 -3.39929688 29.71867187 -3.08984375 29.05859375 C-0.18199784 22.44447644 0.68152765 18.40303626 -1.97265625 11.453125 C-2.67797348 9.70373602 -3.40581314 7.96318982 -4.16015625 6.234375 C-5 4 -5 4 -5 1 C-2 0 -2 0 0 0 Z " fill="#488255" transform="translate(111,53)"/>
<path d="M0 0 C0.99 0.66 1.98 1.32 3 2 C3.99 1.34 4.98 0.68 6 0 C6 0.99 6 1.98 6 3 C6.66 3 7.32 3 8 3 C8 3.66 8 4.32 8 5 C8.66 5.66 9.32 6.32 10 7 C8.7934375 7.309375 8.7934375 7.309375 7.5625 7.625 C6.716875 8.07875 5.87125 8.5325 5 9 C3.72974687 13.89954778 3.88214917 18.85084798 3.9375 23.875 C3.94201172 24.65875 3.94652344 25.4425 3.95117188 26.25 C3.96285907 28.16670014 3.98079092 30.08336048 4 32 C2.02 32 0.04 32 -2 32 C-1.98839844 30.74703125 -1.97679688 29.4940625 -1.96484375 28.203125 C-1.95546284 26.55208483 -1.94636296 24.90104304 -1.9375 23.25 C-1.92912109 22.425 -1.92074219 21.6 -1.91210938 20.75 C-1.90888672 19.95078125 -1.90566406 19.1515625 -1.90234375 18.328125 C-1.89710693 17.5949707 -1.89187012 16.86181641 -1.88647461 16.10644531 C-2.00577715 13.89280584 -2.21337999 12.07773655 -3 10 C-5.97503122 8.84164327 -5.97503122 8.84164327 -9 8 C-9.33 7.34 -9.66 6.68 -10 6 C-9.01 6 -8.02 6 -7 6 C-7.33 5.01 -7.66 4.02 -8 3 C-7.34 3 -6.68 3 -6 3 C-5.67 2.34 -5.34 1.68 -5 1 C-3.68 1 -2.36 1 -1 1 C-0.67 0.67 -0.34 0.34 0 0 Z " fill="#F4CAA1" transform="translate(82,40)"/>
<path d="M0 0 C4.95 0 9.9 0 15 0 C15 2.97 15 5.94 15 9 C13.68 9 12.36 9 11 9 C11 7.68 11 6.36 11 5 C9.35 5 7.7 5 6 5 C6 6.98 6 8.96 6 11 C6.99 11 7.98 11 9 11 C9 12.32 9 13.64 9 15 C7.68 15 6.36 15 5 15 C5 20.61 5 26.22 5 32 C3.35 32 1.7 32 0 32 C0 21.44 0 10.88 0 0 Z " fill="#3E7C4C" transform="translate(89,53)"/>
<path d="M0 0 C3.37048101 1.24561255 4.37133631 1.80456201 5.875 5.0625 C6.51190429 10.07812131 6.65023147 11.94525464 3.75 16.125 C0.875 18.0625 0.875 18.0625 -2.25 18.125 C-5.62048101 16.87938745 -6.62133631 16.32043799 -8.125 13.0625 C-8.76190429 8.04687869 -8.90023147 6.17974536 -6 2 C-3.125 0.0625 -3.125 0.0625 0 0 Z " fill="#468254" transform="translate(37.125,52.9375)"/>
<path d="M0 0 C0.33 0.99 0.66 1.98 1 3 C-0.12188559 4.14888283 -1.24761684 5.29401137 -2.375 6.4375 C-3.00148438 7.07558594 -3.62796875 7.71367188 -4.2734375 8.37109375 C-6 10 -6 10 -8 11 C-6.55218207 14.44428265 -4.72305391 16.36130962 -1.875 18.75 C-1.15054688 19.36359375 -0.42609375 19.9771875 0.3203125 20.609375 C0.87460938 21.06828125 1.42890625 21.5271875 2 22 C1.01 23.32 0.02 24.64 -1 26 C-5.20006745 24.38458944 -8.67335605 21.86045063 -11 18 C-11.99283822 13.78919792 -12.04788905 10.20276356 -11 6 C-8.08993395 1.94597695 -5.08975134 -1.69658378 0 0 Z " fill="#498657" transform="translate(75,51)"/>
<path d="M0 0 C1.98 0 3.96 0 6 0 C6 7.92 6 15.84 6 24 C4.02 24 2.04 24 0 24 C-0.94120241 15.83325905 -0.94120241 8.16674095 0 0 Z " fill="#7EE394" transform="translate(59,48)"/>
<path d="M0 0 C1.65 0 3.3 0 5 0 C5 7.92 5 15.84 5 24 C3.35 24 1.7 24 0 24 C0 16.08 0 8.16 0 0 Z " fill="#407D4D" transform="translate(5,48)"/>
<path d="M0 0 C1.65 0 3.3 0 5 0 C5 5.28 5 10.56 5 16 C3.35 16 1.7 16 0 16 C0 10.72 0 5.44 0 0 Z " fill="#427F50" transform="translate(81,56)"/>
<path d="M0 0 C3.3 0 6.6 0 10 0 C10 2.97 10 5.94 10 9 C8.68 9 7.36 9 6 9 C6 7.68 6 6.36 6 5 C4.35 5 2.7 5 1 5 C1 6.98 1 8.96 1 11 C1.99 11.33 2.98 11.66 4 12 C2.68 12 1.36 12 0 12 C0 8.04 0 4.08 0 0 Z " fill="#82DF96" transform="translate(94,53)"/>
<path d="M0 0 C2.625 0.375 2.625 0.375 5 1 C5 3.64 5 6.28 5 9 C3.35 9 1.7 9 0 9 C0 14.28 0 19.56 0 25 C-0.33 25 -0.66 25 -1 25 C-0.98839844 23.75863281 -0.97679688 22.51726562 -0.96484375 21.23828125 C-0.95546132 19.59635568 -0.9463616 17.95442847 -0.9375 16.3125 C-0.92912109 15.49587891 -0.92074219 14.67925781 -0.91210938 13.83789062 C-0.89833986 10.43681959 -0.91888584 7.38138768 -1.62890625 4.04296875 C-1.75136719 3.36878906 -1.87382813 2.69460937 -2 2 C-1.34 1.34 -0.68 0.68 0 0 Z " fill="#C8DB60" transform="translate(81,47)"/>
<path d="M0 0 C0.33 0 0.66 0 1 0 C1 1.65 1 3.3 1 5 C2.32 4.34 3.64 3.68 5 3 C5.66 4.65 6.32 6.3 7 8 C5.7934375 8.61875 5.7934375 8.61875 4.5625 9.25 C0.58219835 13.52154323 1.09765275 18.35389564 1 24 C0.67 24 0.34 24 0 24 C0 16.08 0 8.16 0 0 Z " fill="#89D89A" transform="translate(10,48)"/>
<path d="M0 0 C0.99 0.33 1.98 0.66 3 1 C3 2.98 3 4.96 3 7 C1.68 7 0.36 7 -1 7 C-1.04254356 5.00045254 -1.04080783 2.99958364 -1 1 C-0.67 0.67 -0.34 0.34 0 0 Z " fill="#ECF2ED" transform="translate(35,58)"/>
<path d="M0 0 C0.99 0.33 1.98 0.66 3 1 C3 2.98 3 4.96 3 7 C2.01 7.33 1.02 7.66 0 8 C-1.125 2.25 -1.125 2.25 0 0 Z " fill="#F1F5F2" transform="translate(50,58)"/>
<path d="M0 0 C1.32 0.66 2.64 1.32 4 2 C4 2.99 4 3.98 4 5 C2.68 5.33 1.36 5.66 0 6 C-0.66 5.01 -1.32 4.02 -2 3 C-1.01 3 -0.02 3 1 3 C0.67 2.01 0.34 1.02 0 0 Z " fill="#EFA168" transform="translate(74,43)"/>
<path d="M0 0 C1.485 0.99 1.485 0.99 3 2 C3.66 1.67 4.32 1.34 5 1 C4.67 2.32 4.34 3.64 4 5 C2.68 5.33 1.36 5.66 0 6 C0 4.02 0 2.04 0 0 Z " fill="#EE9D62" transform="translate(82,40)"/>
<path d="M0 0 C0.66 0 1.32 0 2 0 C2 0.66 2 1.32 2 2 C2.66 2.66 3.32 3.32 4 4 C2.35 4.66 0.7 5.32 -1 6 C-1.33 5.01 -1.66 4.02 -2 3 C-1.34 2.01 -0.68 1.02 0 0 Z " fill="#EC904D" transform="translate(88,43)"/>
</svg>
